<svg id="visual" viewBox="0 0 1920 1080" width="1920" height="1080" xmlns="http://www.w3.org/2000/svg" xmlns:xlink="http://www.w3.org/1999/xlink" version="1.1"><path d="M0 314L35.5 335.7C71 357.3 142 400.7 213.2 429.5C284.3 458.3 355.7 472.7 426.8 443.8C498 415 569 343 640 294.3C711 245.7 782 220.3 853.2 225.7C924.3 231 995.7 267 1066.8 279.7C1138 292.3 1209 281.7 1280 287.2C1351 292.7 1422 314.3 1493.2 354C1564.3 393.7 1635.7 451.3 1706.8 460.3C1778 469.3 1849 429.7 1884.5 409.8L1920 390L1920 0L1884.5 0C1849 0 1778 0 1706.8 0C1635.7 0 1564.3 0 1493.2 0C1422 0 1351 0 1280 0C1209 0 1138 0 1066.8 0C995.7 0 924.3 0 853.2 0C782 0 711 0 640 0C569 0 498 0 426.8 0C355.7 0 284.3 0 213.2 0C142 0 71 0 35.5 0L0 0Z" fill="#003664"></path><path d="M0 455L35.5 478.3C71 501.7 142 548.3 213.2 586C284.3 623.7 355.7 652.3 426.8 614.5C498 576.7 569 472.3 640 416.7C711 361 782 354 853.2 370.2C924.3 386.3 995.7 425.7 1066.8 436.3C1138 447 1209 429 1280 430.8C1351 432.7 1422 454.3 1493.2 486.8C1564.3 519.3 1635.7 562.7 1706.8 562.7C1778 562.7 1849 519.3 1884.5 497.7L1920 476L1920 388L1884.5 407.8C1849 427.7 1778 467.3 1706.8 458.3C1635.7 449.3 1564.3 391.7 1493.2 352C1422 312.3 1351 290.7 1280 285.2C1209 279.7 1138 290.3 1066.8 277.7C995.7 265 924.3 229 853.2 223.7C782 218.3 711 243.7 640 292.3C569 341 498 413 426.8 441.8C355.7 470.7 284.3 456.3 213.2 427.5C142 398.7 71 355.3 35.5 333.7L0 312Z" fill="#002442"></path><path d="M0 573L35.5 594.7C71 616.3 142 659.7 213.2 699.3C284.3 739 355.7 775 426.8 733.7C498 692.3 569 573.7 640 523.3C711 473 782 491 853.2 527C924.3 563 995.7 617 1066.8 611.5C1138 606 1209 541 1280 521.2C1351 501.3 1422 526.7 1493.2 566.3C1564.3 606 1635.7 660 1706.8 672.5C1778 685 1849 656 1884.5 641.5L1920 627L1920 474L1884.5 495.7C1849 517.3 1778 560.7 1706.8 560.7C1635.7 560.7 1564.3 517.3 1493.2 484.8C1422 452.3 1351 430.7 1280 428.8C1209 427 1138 445 1066.8 434.3C995.7 423.7 924.3 384.3 853.2 368.2C782 352 711 359 640 414.7C569 470.3 498 574.7 426.8 612.5C355.7 650.3 284.3 621.7 213.2 584C142 546.3 71 499.7 35.5 476.3L0 453Z" fill="#001122"></path><path d="M0 865L35.5 881.2C71 897.3 142 929.7 213.2 945.8C284.3 962 355.7 962 426.8 897.2C498 832.3 569 702.7 640 670.3C711 638 782 703 853.2 744.5C924.3 786 995.7 804 1066.8 798.5C1138 793 1209 764 1280 740.5C1351 717 1422 699 1493.2 731.5C1564.3 764 1635.7 847 1706.8 892C1778 937 1849 944 1884.5 947.5L1920 951L1920 625L1884.5 639.5C1849 654 1778 683 1706.8 670.5C1635.7 658 1564.3 604 1493.2 564.3C1422 524.7 1351 499.3 1280 519.2C1209 539 1138 604 1066.8 609.5C995.7 615 924.3 561 853.2 525C782 489 711 471 640 521.3C569 571.7 498 690.3 426.8 731.7C355.7 773 284.3 737 213.2 697.3C142 657.7 71 614.3 35.5 592.7L0 571Z" fill="#000f1e"></path><path d="M0 1081L35.5 1081C71 1081 142 1081 213.2 1081C284.3 1081 355.7 1081 426.8 1081C498 1081 569 1081 640 1081C711 1081 782 1081 853.2 1081C924.3 1081 995.7 1081 1066.8 1081C1138 1081 1209 1081 1280 1081C1351 1081 1422 1081 1493.2 1081C1564.3 1081 1635.7 1081 1706.8 1081C1778 1081 1849 1081 1884.5 1081L1920 1081L1920 949L1884.5 945.5C1849 942 1778 935 1706.8 890C1635.7 845 1564.3 762 1493.2 729.5C1422 697 1351 715 1280 738.5C1209 762 1138 791 1066.8 796.5C995.7 802 924.3 784 853.2 742.5C782 701 711 636 640 668.3C569 700.7 498 830.3 426.8 895.2C355.7 960 284.3 960 213.2 943.8C142 927.7 71 895.3 35.5 879.2L0 863Z" fill="#000d1b"></path></svg>